<svg xmlns="http://www.w3.org/2000/svg" xmlns:xlink="http://www.w3.org/1999/xlink" viewBox="0,0,256,256" width="500px" height="500px"><g fill-opacity="0" fill="#dddddd" fill-rule="nonzero" stroke="none" stroke-width="1" stroke-linecap="butt" stroke-linejoin="miter" stroke-miterlimit="10" stroke-dasharray="" stroke-dashoffset="0" font-family="none" font-weight="none" font-size="none" text-anchor="none" style="mix-blend-mode: normal"><path d="M0,256v-256h256v256z" id="bgRectangle"></path></g><g fill="none" fill-rule="nonzero" stroke="none" stroke-width="1" stroke-linecap="butt" stroke-linejoin="miter" stroke-miterlimit="10" stroke-dasharray="" stroke-dashoffset="0" font-family="none" font-weight="none" font-size="none" text-anchor="none" style="mix-blend-mode: normal"><g transform="scale(2.56,2.56)"><path d="M86.703,55.884c0.3,-0.616 0.566,-1.264 0.796,-1.943c2.633,-7.77 -1.349,-17.078 -9.733,-19.325c-0.906,-11.384 -8.906,-19.193 -17.941,-20.526c-10.341,-1.525 -19.814,5.044 -22.966,15.485c-3.799,-1.346 -7.501,-1.182 -10.99,0.857c-1.583,0.732 -3.031,1.812 -4.33,3.233c-1.907,2.086 -3.147,4.719 -3.652,7.495c-0.748,0.118 -1.483,0.236 -2.176,0.484c-4.04,1.449 -6.589,4.431 -7.288,8.923c-0.435,2.797 0.443,5.587 0.933,6.714c1.935,4.455 6.422,6.98 10.981,6.312c0.227,-0.033 0.557,0.069 0.752,0.233c0.241,7.12 3.698,13.417 8.884,17.014c8.321,5.772 19.027,3.994 25.781,-3.921c2.894,2.96 6.338,4.398 10.384,3.876c4.023,-0.519 7.147,-2.739 9.426,-6.349c1.053,0.283 2.051,0.691 3.083,0.804c4.042,0.442 7.297,-1.184 9.732,-4.8c0.083,-0.124 0.203,-0.219 0.306,-0.328c0.348,-0.798 0.696,-1.596 1.044,-2.394c0.155,-1.211 0.429,-2.423 0.443,-3.632c0.039,-3.255 -1.292,-6.222 -3.469,-8.212z" fill-opacity="0.0902" fill="#17a2b8"></path><path d="M78.528,68.063c0,0 11.691,0 11.762,0c2.7,0 4.888,-2.189 4.888,-4.889c0,-2.355 -1.666,-4.321 -3.884,-4.784c0.026,-0.206 0.043,-0.415 0.043,-0.628c0,-2.796 -2.267,-5.063 -5.063,-5.063c-1.651,0 -3.113,0.794 -4.037,2.017c-0.236,-3.113 -3.017,-5.514 -6.27,-5.116c-2.379,0.291 -4.346,2.13 -4.784,4.486c-0.14,0.756 -0.126,1.489 0.014,2.177c-0.638,-0.687 -1.546,-1.119 -2.557,-1.119c-1.85,0 -3.361,1.441 -3.48,3.261c-0.84,-0.186 -1.754,-0.174 -2.717,0.188c-1.84,0.691 -3.15,2.423 -3.227,4.387c-0.109,2.789 2.12,5.085 4.885,5.085c0.21,0 0.948,0 1.118,0h10.151" fill="#f8f9fa"></path><path d="M90.29,68.563h-11.762c-0.276,0 -0.5,-0.224 -0.5,-0.5c0,-0.276 0.224,-0.5 0.5,-0.5h11.762c2.42,0 4.389,-1.969 4.389,-4.389c0,-2.066 -1.466,-3.873 -3.486,-4.295c-0.255,-0.053 -0.426,-0.292 -0.394,-0.55c0.023,-0.187 0.039,-0.375 0.039,-0.567c0,-2.516 -2.047,-4.563 -4.563,-4.563c-1.438,0 -2.765,0.663 -3.638,1.818c-0.125,0.166 -0.339,0.239 -0.54,0.178c-0.199,-0.059 -0.342,-0.234 -0.357,-0.441c-0.104,-1.377 -0.779,-2.671 -1.851,-3.549c-1.082,-0.887 -2.453,-1.282 -3.86,-1.109c-2.166,0.265 -3.956,1.943 -4.353,4.081c-0.124,0.667 -0.12,1.335 0.013,1.986c0.044,0.22 -0.062,0.442 -0.262,0.544c-0.2,0.102 -0.443,0.06 -0.595,-0.104c-0.575,-0.619 -1.353,-0.959 -2.19,-0.959c-1.569,0 -2.878,1.227 -2.981,2.794c-0.01,0.146 -0.083,0.28 -0.199,0.367c-0.117,0.087 -0.268,0.119 -0.408,0.088c-0.842,-0.187 -1.638,-0.132 -2.433,0.167c-1.669,0.626 -2.835,2.208 -2.903,3.938c-0.047,1.207 0.387,2.35 1.222,3.218c0.835,0.868 1.958,1.347 3.163,1.347h11.269c0.276,0 0.5,0.224 0.5,0.5c0,0.276 -0.224,0.5 -0.5,0.5h-11.27c-1.479,0 -2.858,-0.587 -3.884,-1.654c-1.025,-1.066 -1.558,-2.469 -1.5,-3.95c0.083,-2.126 1.51,-4.069 3.55,-4.835c0.801,-0.3 1.628,-0.399 2.468,-0.299c0.377,-1.823 1.998,-3.182 3.905,-3.182c0.684,0 1.354,0.18 1.944,0.51c0,-0.385 0.035,-0.772 0.106,-1.159c0.477,-2.562 2.621,-4.573 5.215,-4.891c1.677,-0.205 3.319,0.266 4.615,1.328c1.004,0.823 1.716,1.951 2.038,3.193c1.012,-0.916 2.319,-1.425 3.714,-1.425c3.067,0 5.563,2.496 5.563,5.563c0,0.083 -0.002,0.166 -0.007,0.249c2.254,0.673 3.848,2.777 3.848,5.164c0.001,2.97 -2.416,5.388 -5.387,5.388z" fill="#343a40"></path><path d="M75.695,57.294c-1.808,-0.119 -3.365,1.13 -3.476,2.789c-0.014,0.206 -0.005,0.409 0.025,0.606c-0.349,-0.394 -0.865,-0.661 -1.458,-0.7c-1.085,-0.071 -2.022,0.645 -2.158,1.62c-0.197,-0.054 -0.403,-0.09 -0.616,-0.104c-1.582,-0.104 -2.944,0.989 -3.042,2.441" fill="#f8f9fa"></path><path d="M64.97,64.195c-0.006,0 -0.012,0 -0.017,0c-0.138,-0.009 -0.242,-0.128 -0.233,-0.266c0.107,-1.586 1.58,-2.783 3.308,-2.673c0.135,0.009 0.271,0.026 0.408,0.053c0.274,-0.968 1.258,-1.636 2.365,-1.568c0.426,0.028 0.824,0.161 1.164,0.382c0,-0.019 0.002,-0.037 0.003,-0.055c0.121,-1.794 1.795,-3.139 3.742,-3.022c0.138,0.009 0.242,0.128 0.233,0.266c-0.009,0.137 -0.117,0.241 -0.266,0.233c-1.664,-0.111 -3.108,1.038 -3.21,2.557c-0.012,0.184 -0.004,0.37 0.023,0.552c0.017,0.109 -0.041,0.217 -0.141,0.264c-0.1,0.047 -0.22,0.022 -0.293,-0.061c-0.318,-0.359 -0.787,-0.584 -1.288,-0.617c-0.94,-0.062 -1.775,0.556 -1.894,1.405c-0.01,0.071 -0.05,0.134 -0.11,0.174c-0.06,0.04 -0.133,0.051 -0.204,0.033c-0.189,-0.052 -0.38,-0.084 -0.566,-0.096c-1.437,-0.104 -2.688,0.895 -2.776,2.208c-0.007,0.13 -0.117,0.231 -0.248,0.231z" fill="#343a40"></path><path d="M92.269,58.963c-1.699,-0.801 -3.664,-0.234 -4.389,1.267c-0.09,0.186 -0.157,0.379 -0.201,0.574" fill="#f8f9fa"></path><path d="M87.679,61.053c-0.018,0 -0.037,-0.002 -0.056,-0.006c-0.135,-0.031 -0.219,-0.165 -0.188,-0.299c0.049,-0.217 0.124,-0.428 0.22,-0.627c0.783,-1.622 2.902,-2.243 4.72,-1.384c0.125,0.059 0.179,0.208 0.12,0.333c-0.059,0.126 -0.209,0.178 -0.333,0.12c-1.573,-0.741 -3.394,-0.227 -4.057,1.149c-0.08,0.165 -0.142,0.34 -0.183,0.521c-0.025,0.115 -0.128,0.193 -0.243,0.193z" fill="#343a40"></path><path d="M23.578,63.789h-10.03c-0.276,0 -0.5,-0.224 -0.5,-0.5c0,-0.276 0.224,-0.5 0.5,-0.5h10.03c0.276,0 0.5,0.224 0.5,0.5c0,0.276 -0.223,0.5 -0.5,0.5zM26.46,63.789h-1.446c-0.276,0 -0.5,-0.224 -0.5,-0.5c0,-0.276 0.224,-0.5 0.5,-0.5h1.446c0.276,0 0.5,0.224 0.5,0.5c0,0.276 -0.224,0.5 -0.5,0.5zM30.514,63.789h-2.545c-0.276,0 -0.5,-0.224 -0.5,-0.5c0,-0.276 0.224,-0.5 0.5,-0.5h2.545c0.276,0 0.5,0.224 0.5,0.5c0,0.276 -0.224,0.5 -0.5,0.5zM30.514,65.655h-9.616c-0.276,0 -0.5,-0.224 -0.5,-0.5c0,-0.276 0.224,-0.5 0.5,-0.5h9.616c0.276,0 0.5,0.224 0.5,0.5c0,0.276 -0.224,0.5 -0.5,0.5zM19.166,65.655h-0.58c-0.276,0 -0.5,-0.224 -0.5,-0.5c0,-0.276 0.224,-0.5 0.5,-0.5h0.58c0.276,0 0.5,0.224 0.5,0.5c0,0.276 -0.223,0.5 -0.5,0.5zM16.789,65.655h-1.456c-0.276,0 -0.5,-0.224 -0.5,-0.5c0,-0.276 0.224,-0.5 0.5,-0.5h1.456c0.276,0 0.5,0.224 0.5,0.5c0,0.276 -0.223,0.5 -0.5,0.5zM25.925,61.925h-5.027c-0.276,0 -0.5,-0.224 -0.5,-0.5c0,-0.276 0.224,-0.5 0.5,-0.5h5.027c0.276,0 0.5,0.224 0.5,0.5c0,0.276 -0.224,0.5 -0.5,0.5zM25.925,60.06h-1.257c-0.276,0 -0.5,-0.224 -0.5,-0.5c0,-0.276 0.224,-0.5 0.5,-0.5h1.257c0.276,0 0.5,0.224 0.5,0.5c0,0.276 -0.224,0.5 -0.5,0.5zM22.656,67.519h-1.759c-0.276,0 -0.5,-0.224 -0.5,-0.5c0,-0.276 0.224,-0.5 0.5,-0.5h1.759c0.276,0 0.5,0.224 0.5,0.5c0,0.276 -0.223,0.5 -0.5,0.5z" fill="#ffffff"></path><g><path d="M38.537,53.18c1.883,0 3.517,0 3.54,0c2.11,0 3.821,-1.674 3.821,-3.739c0,-1.802 -1.302,-3.305 -3.035,-3.66c0.02,-0.158 0.034,-0.317 0.034,-0.48c0,-2.139 -1.772,-3.873 -3.957,-3.873c-1.29,0 -2.433,0.607 -3.155,1.543c-0.185,-2.381 -2.358,-4.218 -4.9,-3.913c-1.859,0.223 -3.397,1.629 -3.739,3.431c-0.11,0.578 -0.098,1.139 0.011,1.665c-0.498,-0.525 -1.208,-0.856 -1.998,-0.856c-1.446,0 -2.627,1.102 -2.72,2.494c-0.657,-0.142 -1.371,-0.133 -2.123,0.143c-1.438,0.528 -2.462,1.853 -2.522,3.356c-0.085,2.133 1.657,3.889 3.818,3.889c0.164,0 0.741,0 0.874,0h7.934M32.06,53.18h0.36" fill="#f8f9fa"></path><path d="M42.077,53.68h-3.541c-0.276,0 -0.5,-0.224 -0.5,-0.5c0,-0.276 0.224,-0.5 0.5,-0.5h3.541c1.831,0 3.32,-1.453 3.32,-3.239c0,-1.524 -1.108,-2.857 -2.635,-3.17c-0.256,-0.052 -0.429,-0.293 -0.396,-0.553c0.018,-0.137 0.029,-0.276 0.029,-0.417c0,-1.86 -1.551,-3.373 -3.457,-3.373c-1.092,0 -2.098,0.491 -2.759,1.348c-0.127,0.164 -0.34,0.232 -0.539,0.173c-0.198,-0.059 -0.339,-0.234 -0.355,-0.44c-0.079,-1.019 -0.565,-1.944 -1.37,-2.604c-0.828,-0.679 -1.884,-0.982 -2.973,-0.852c-1.646,0.197 -3.006,1.442 -3.307,3.028c-0.094,0.494 -0.091,0.988 0.01,1.471c0.045,0.219 -0.06,0.441 -0.258,0.544c-0.198,0.104 -0.44,0.063 -0.595,-0.099c-0.428,-0.452 -1.009,-0.7 -1.636,-0.7c-1.169,0 -2.145,0.891 -2.221,2.027c-0.01,0.145 -0.082,0.279 -0.198,0.366c-0.116,0.087 -0.263,0.119 -0.407,0.089c-0.638,-0.139 -1.241,-0.098 -1.845,0.124c-1.262,0.464 -2.144,1.632 -2.195,2.906c-0.035,0.875 0.283,1.708 0.895,2.345c0.635,0.661 1.496,1.024 2.423,1.024h8.808c0.276,0 0.5,0.224 0.5,0.5c0,0.276 -0.224,0.5 -0.5,0.5h-8.806c-1.185,0 -2.331,-0.485 -3.145,-1.332c-0.802,-0.835 -1.218,-1.928 -1.172,-3.077c0.066,-1.674 1.211,-3.203 2.849,-3.805c0.61,-0.224 1.24,-0.305 1.88,-0.245c0.344,-1.396 1.629,-2.424 3.135,-2.424c0.493,0 0.977,0.113 1.414,0.323c0.009,-0.242 0.037,-0.484 0.083,-0.726c0.381,-2.009 2.097,-3.586 4.17,-3.834c1.36,-0.161 2.685,0.218 3.726,1.072c0.748,0.613 1.278,1.409 1.546,2.302c0.791,-0.648 1.786,-1.007 2.843,-1.007c2.458,0 4.457,1.961 4.457,4.373c0,0.034 0,0.068 -0.001,0.102c1.764,0.555 3.003,2.188 3.003,4.038c0,2.34 -1.938,4.242 -4.321,4.242zM32.419,53.68h-0.359c-0.276,0 -0.5,-0.224 -0.5,-0.5c0,-0.276 0.224,-0.5 0.5,-0.5h0.359c0.276,0 0.5,0.224 0.5,0.5c0,0.276 -0.223,0.5 -0.5,0.5z" fill="#343a40"></path><path d="M40.369,47.876c-0.018,0 -0.037,-0.002 -0.055,-0.006c-0.135,-0.03 -0.219,-0.165 -0.188,-0.299c0.038,-0.167 0.095,-0.327 0.169,-0.479c0.604,-1.224 2.275,-1.675 3.722,-1.007c0.125,0.058 0.18,0.207 0.122,0.332c-0.059,0.125 -0.206,0.18 -0.332,0.122c-1.201,-0.555 -2.578,-0.208 -3.063,0.774c-0.058,0.116 -0.101,0.24 -0.13,0.367c-0.027,0.118 -0.13,0.196 -0.245,0.196z" fill="#343a40"></path><g fill="#343a40"><path d="M35.211,53.68h-1.107c-0.276,0 -0.5,-0.224 -0.5,-0.5c0,-0.276 0.224,-0.5 0.5,-0.5h1.107c0.276,0 0.5,0.224 0.5,0.5c0,0.276 -0.224,0.5 -0.5,0.5z"></path></g></g><g fill="#ffffff"><path d="M69.546,21.643h-10.03c-0.276,0 -0.5,-0.224 -0.5,-0.5c0,-0.276 0.224,-0.5 0.5,-0.5h10.03c0.276,0 0.5,0.224 0.5,0.5c0,0.276 -0.224,0.5 -0.5,0.5zM72.427,21.643h-1.446c-0.276,0 -0.5,-0.224 -0.5,-0.5c0,-0.276 0.224,-0.5 0.5,-0.5h1.446c0.276,0 0.5,0.224 0.5,0.5c0,0.276 -0.223,0.5 -0.5,0.5zM76.482,21.643h-2.546c-0.276,0 -0.5,-0.224 -0.5,-0.5c0,-0.276 0.224,-0.5 0.5,-0.5h2.546c0.276,0 0.5,0.224 0.5,0.5c0,0.276 -0.224,0.5 -0.5,0.5zM74.456,17.914h-9.616c-0.276,0 -0.5,-0.224 -0.5,-0.5c0,-0.276 0.224,-0.5 0.5,-0.5h9.617c0.276,0 0.5,0.224 0.5,0.5c0,0.276 -0.224,0.5 -0.501,0.5zM63.108,17.914h-0.58c-0.276,0 -0.5,-0.224 -0.5,-0.5c0,-0.276 0.224,-0.5 0.5,-0.5h0.58c0.276,0 0.5,0.224 0.5,0.5c0,0.276 -0.224,0.5 -0.5,0.5zM60.731,17.914h-1.456c-0.276,0 -0.5,-0.224 -0.5,-0.5c0,-0.276 0.224,-0.5 0.5,-0.5h1.456c0.276,0 0.5,0.224 0.5,0.5c0,0.276 -0.223,0.5 -0.5,0.5zM71.893,19.778h-5.027c-0.276,0 -0.5,-0.224 -0.5,-0.5c0,-0.276 0.224,-0.5 0.5,-0.5h5.027c0.276,0 0.5,0.224 0.5,0.5c0,0.276 -0.224,0.5 -0.5,0.5z"></path><path d="M71.893,17.914h-1.257c-0.276,0 -0.5,-0.224 -0.5,-0.5c0,-0.276 0.224,-0.5 0.5,-0.5h1.257c0.276,0 0.5,0.224 0.5,0.5c0,0.276 -0.224,0.5 -0.5,0.5zM65.41,19.778h-1.759c-0.276,0 -0.5,-0.224 -0.5,-0.5c0,-0.276 0.224,-0.5 0.5,-0.5h1.759c0.276,0 0.5,0.224 0.5,0.5c0,0.276 -0.223,0.5 -0.5,0.5z"></path></g><g><path d="M39.737,27.268h-0.795c-3.011,0 -5.474,2.408 -5.474,5.35v37.7c0,2.943 2.463,5.35 5.474,5.35h27.289c3.011,0 5.474,-2.408 5.474,-5.35v-30.645c-4.936,-4.824 -7.756,-7.581 -12.692,-12.405h-11.755" fill="#f8f9fa"></path><path d="M66.231,76.369h-27.289c-3.404,0 -6.174,-2.714 -6.174,-6.05v-37.701c0,-3.336 2.77,-6.05 6.174,-6.05h0.794c0.387,0 0.7,0.313 0.7,0.7c0,0.387 -0.313,0.7 -0.7,0.7h-0.794c-2.632,0 -4.773,2.085 -4.773,4.649v37.701c0,2.564 2.141,4.65 4.773,4.65h27.289c2.632,0 4.773,-2.086 4.773,-4.65v-30.351l-12.276,-11.999h-11.469c-0.387,0 -0.7,-0.313 -0.7,-0.7c0,-0.387 0.313,-0.7 0.7,-0.7h11.754c0.183,0 0.358,0.072 0.489,0.2l12.691,12.405c0.135,0.132 0.211,0.312 0.211,0.5v30.646c0.001,3.335 -2.769,6.05 -6.173,6.05z" fill="#343a40"></path><path d="M58.855,27.574v6.73c0,3.038 2.396,5.523 5.325,5.523h7.08" fill="#cfcfd0"></path><path d="M71.26,40.203h-7.08c-3.143,0 -5.7,-2.646 -5.7,-5.898v-6.73c0,-0.207 0.168,-0.375 0.375,-0.375c0.207,0 0.375,0.168 0.375,0.375v6.73c0,2.838 2.221,5.148 4.95,5.148h7.081c0.207,0 0.375,0.168 0.375,0.375c0,0.207 -0.168,0.375 -0.376,0.375zM68.257,51.23c-0.207,0 -0.375,-0.168 -0.375,-0.375v-1.838c0,-0.207 0.168,-0.375 0.375,-0.375c0.207,0 0.375,0.168 0.375,0.375v1.838c0,0.207 -0.168,0.375 -0.375,0.375zM68.257,56.132c-0.207,0 -0.375,-0.168 -0.375,-0.375v-3.677c0,-0.207 0.168,-0.375 0.375,-0.375c0.207,0 0.375,0.168 0.375,0.375v3.676c0,0.208 -0.168,0.376 -0.375,0.376zM63.77,72.674h-22.367c-2.681,0 -4.862,-2.144 -4.862,-4.78v-32.265c0,-1.586 0.804,-3.068 2.15,-3.962c0.172,-0.114 0.405,-0.068 0.52,0.105c0.114,0.172 0.067,0.405 -0.105,0.52c-1.137,0.755 -1.815,2.003 -1.815,3.337v32.265c0,2.222 1.845,4.03 4.112,4.03h22.367c2.267,0 4.112,-1.808 4.112,-4.03v-10.912c0,-0.207 0.168,-0.375 0.375,-0.375c0.207,0 0.375,0.168 0.375,0.375v10.912c0,2.636 -2.181,4.78 -4.862,4.78z" fill="#343a40"></path><path d="M46.394,28.493l-0.057,7.084c0,1.354 -1.206,2.412 -2.429,2.412c-1.223,0 -2.529,-1.078 -2.529,-2.432l0.019,-7.491c0,-0.8 0.897,-1.523 1.646,-1.523c0.749,0 1.47,0.704 1.47,1.504v6.417c0,0 -0.299,0.613 -0.617,0.613c-0.318,0 -0.717,-0.218 -0.637,-0.555v-6.031h-0.627l-0.021,5.916c0,0.845 0.464,1.225 1.3,1.225c0.836,0 1.228,-0.437 1.228,-1.283v-6.249c0,-1.391 -0.853,-2.144 -2.154,-2.144c-1.301,0 -2.234,0.773 -2.234,2.164l0.02,7.419c0,1.862 1.331,3.006 3.114,3.006c1.783,0 3.134,-1.048 3.134,-2.91v-7.141h-0.626zM54.467,51.843h-14.417c-0.207,0 -0.375,-0.168 -0.375,-0.375c0,-0.207 0.168,-0.375 0.375,-0.375h14.417c0.207,0 0.375,0.168 0.375,0.375c0,0.207 -0.168,0.375 -0.375,0.375zM48.825,56.132h-8.775c-0.207,0 -0.375,-0.168 -0.375,-0.375c0,-0.207 0.168,-0.375 0.375,-0.375h8.775c0.207,0 0.375,0.168 0.375,0.375c0,0.207 -0.168,0.375 -0.375,0.375zM65.123,56.132h-15.044c-0.207,0 -0.375,-0.168 -0.375,-0.375c0,-0.207 0.168,-0.375 0.375,-0.375h15.043c0.207,0 0.375,0.168 0.375,0.375c0,0.207 -0.167,0.375 -0.374,0.375z" fill="#343a40"></path><g fill="#343a40"><path d="M59.481,60.42h-6.895c-0.207,0 -0.375,-0.168 -0.375,-0.375c0,-0.207 0.168,-0.375 0.375,-0.375h6.895c0.207,0 0.375,0.168 0.375,0.375c0,0.207 -0.168,0.375 -0.375,0.375zM65.75,60.42h-5.015c-0.207,0 -0.375,-0.168 -0.375,-0.375c0,-0.207 0.168,-0.375 0.375,-0.375h5.015c0.207,0 0.375,0.168 0.375,0.375c0,0.207 -0.168,0.375 -0.375,0.375zM51.333,60.42h-11.283c-0.207,0 -0.375,-0.168 -0.375,-0.375c0,-0.207 0.168,-0.375 0.375,-0.375h11.283c0.207,0 0.375,0.168 0.375,0.375c0,0.207 -0.168,0.375 -0.375,0.375z"></path></g><g fill="#343a40"><path d="M65.123,64.709h-8.148c-0.207,0 -0.375,-0.168 -0.375,-0.375c0,-0.207 0.168,-0.375 0.375,-0.375h8.148c0.207,0 0.375,0.168 0.375,0.375c0,0.207 -0.168,0.375 -0.375,0.375zM55.093,64.709h-15.043c-0.207,0 -0.375,-0.168 -0.375,-0.375c0,-0.207 0.168,-0.375 0.375,-0.375h15.043c0.207,0 0.375,0.168 0.375,0.375c0,0.207 -0.167,0.375 -0.375,0.375z"></path></g></g><g><path d="M50.103,78.328c-0.128,0 -0.256,-0.049 -0.354,-0.146c-0.195,-0.195 -0.195,-0.512 0,-0.707l2.785,-2.785c0.195,-0.195 0.512,-0.195 0.707,0c0.195,0.195 0.195,0.512 0,0.707l-2.785,2.785c-0.097,0.097 -0.225,0.146 -0.353,0.146z" fill="#343a40"></path><path d="M38.233,89.829l-0.131,-0.131c-1.058,-1.058 -1.058,-2.79 0,-3.848l8.088,-8.088c1.058,-1.058 2.79,-1.058 3.848,0l0.131,0.131c1.058,1.058 1.058,2.79 0,3.848l-8.088,8.088c-1.058,1.058 -2.79,1.058 -3.848,0z" fill="#069c63"></path><path d="M40.156,91.122c-0.862,0 -1.671,-0.333 -2.277,-0.94v0l-0.13,-0.131c-0.606,-0.605 -0.939,-1.415 -0.939,-2.277c0,-0.862 0.333,-1.671 0.94,-2.277l8.087,-8.088c1.256,-1.256 3.299,-1.256 4.555,0l0.13,0.13c0.607,0.606 0.94,1.416 0.94,2.278c0,0.863 -0.333,1.672 -0.94,2.278l-8.088,8.088c-0.606,0.606 -1.415,0.939 -2.278,0.939zM38.587,89.476c0.867,0.865 2.275,0.866 3.141,0l8.088,-8.088c0.866,-0.866 0.866,-2.275 0,-3.141l-0.13,-0.13c-0.866,-0.866 -2.275,-0.867 -3.142,0l-8.087,8.088c-0.866,0.866 -0.866,2.275 0,3.141z" fill="#343a40"></path><path d="M49.807,78.113c-0.923,-0.923 -2.374,-0.984 -3.223,-0.135l-0.154,0.154l0.336,0.336l3.022,3.022l0.154,-0.154c0.849,-0.849 0.789,-2.3 -0.135,-3.223z" fill="#056843"></path><path d="M49.794,82.269c-0.096,0 -0.192,-0.037 -0.265,-0.11l-3.581,-3.581c-0.146,-0.146 -0.146,-0.384 0,-0.53c0.146,-0.146 0.384,-0.146 0.53,0l3.581,3.581c0.146,0.146 0.146,0.384 0,0.53c-0.073,0.074 -0.169,0.11 -0.265,0.11z" fill="#343a40"></path><path transform="translate(-28.79493,63.01459) rotate(-45.001)" d="M61.667,56.417c-5.43835,0 -9.847,4.40865 -9.847,9.847c0,5.43835 4.40865,9.847 9.847,9.847c5.43835,0 9.847,-4.40865 9.847,-9.847c0,-5.43835 -4.40865,-9.847 -9.847,-9.847z" fill-opacity="0.41961" fill="#069c63" opacity="0.74"></path><path d="M70.394,57.537c-4.834,-4.834 -12.672,-4.834 -17.506,0c-4.834,4.834 -4.834,12.672 0,17.506c4.834,4.834 12.672,4.834 17.506,0c4.834,-4.834 4.834,-12.672 0,-17.506zM68.604,73.252c-3.845,3.845 -10.08,3.845 -13.925,0c-3.845,-3.845 -3.845,-10.08 0,-13.925c3.845,-3.845 10.08,-3.845 13.925,0c3.845,3.846 3.845,10.08 0,13.925z" fill="#f8f9fa"></path><path d="M61.641,79.162c-3.298,0 -6.596,-1.255 -9.106,-3.766c-2.433,-2.432 -3.772,-5.667 -3.772,-9.106c0,-3.439 1.34,-6.674 3.772,-9.106c5.021,-5.021 13.191,-5.021 18.213,0v0c5.021,5.021 5.021,13.191 0,18.213c-2.51,2.51 -5.809,3.765 -9.107,3.765zM61.641,54.417c-3.042,0 -6.084,1.158 -8.399,3.473c-2.244,2.244 -3.479,5.227 -3.479,8.399c0,3.172 1.236,6.156 3.479,8.399c4.63,4.63 12.167,4.631 16.799,0c4.631,-4.631 4.631,-12.167 0,-16.799v0c-2.316,-2.314 -5.358,-3.472 -8.4,-3.472zM61.641,76.632c-2.65,0 -5.299,-1.009 -7.316,-3.026c-4.034,-4.034 -4.034,-10.598 0,-14.632c4.034,-4.034 10.598,-4.035 14.632,0c4.034,4.034 4.034,10.599 0,14.632c-2.017,2.017 -4.666,3.026 -7.316,3.026zM61.641,56.947c-2.394,0 -4.787,0.911 -6.609,2.733c-3.644,3.645 -3.644,9.574 0,13.218c3.645,3.645 9.574,3.644 13.218,0c3.644,-3.644 3.644,-9.574 0,-13.218c-1.822,-1.821 -4.216,-2.733 -6.609,-2.733zM39.535,90.673c-0.053,0 -0.102,-0.034 -0.119,-0.087l-1.378,-4.28c-0.021,-0.065 0.015,-0.136 0.081,-0.157c0.065,-0.02 0.136,0.015 0.157,0.081l1.378,4.28c0.021,0.065 -0.015,0.136 -0.081,0.157c-0.013,0.004 -0.025,0.006 -0.038,0.006zM40.407,90.375c-0.054,0 -0.104,-0.035 -0.12,-0.089l-1.561,-5.244c-0.02,-0.066 0.018,-0.136 0.084,-0.155c0.068,-0.02 0.136,0.019 0.155,0.084l1.561,5.244c0.02,0.066 -0.018,0.136 -0.084,0.155c-0.011,0.004 -0.023,0.005 -0.035,0.005zM40.933,88.533c-0.054,0 -0.104,-0.035 -0.12,-0.089l-1.307,-4.389c-0.02,-0.066 0.018,-0.136 0.084,-0.155c0.067,-0.022 0.136,0.018 0.155,0.084l1.307,4.389c0.02,0.066 -0.018,0.136 -0.084,0.155c-0.011,0.003 -0.023,0.005 -0.035,0.005zM41.465,86.608c-0.054,0 -0.104,-0.035 -0.12,-0.089l-0.921,-3.094c-0.02,-0.066 0.018,-0.136 0.084,-0.155c0.065,-0.02 0.136,0.018 0.155,0.084l0.921,3.094c0.02,0.066 -0.018,0.136 -0.084,0.155c-0.011,0.004 -0.023,0.005 -0.035,0.005z" fill="#343a40"></path></g></g></g></svg>